<?xml version="1.0" standalone="no"?>
<!DOCTYPE svg PUBLIC "-//W3C//DTD SVG 20010904//EN"
 "http://www.w3.org/TR/2001/REC-SVG-20010904/DTD/svg10.dtd">
<svg version="1.0" xmlns="http://www.w3.org/2000/svg"
 width="342.000000pt" height="342.000000pt" viewBox="0 0 342.000000 342.000000"
 preserveAspectRatio="xMidYMid meet">
<metadata>
Created by potrace 1.14, written by Peter Selinger 2001-2017
</metadata>
<g transform="translate(0.000000,342.000000) scale(0.100000,-0.100000)"
fill="#000000" stroke="none">
<path d="M1545 3270 c-16 -4 -75 -8 -130 -9 -88 -1 -114 -6 -211 -39 -103 -36
-119 -44 -230 -134 -65 -52 -138 -116 -161 -141 -82 -89 -145 -256 -177 -469
-8 -53 -24 -117 -35 -143 -14 -32 -21 -68 -21 -112 0 -35 -10 -102 -21 -148
l-21 -85 31 -35 c37 -43 42 -99 12 -136 -29 -36 -56 -16 -56 42 0 42 -1 44
-30 44 -23 0 -30 -5 -35 -25 -4 -18 -14 -26 -33 -28 -31 -4 -33 -15 -11 -67
13 -32 18 -36 39 -31 31 8 105 -9 116 -26 5 -7 9 -28 9 -46 0 -52 26 -89 78
-116 67 -34 76 -47 67 -101 -6 -41 -3 -51 28 -98 65 -97 100 -110 113 -42 5
29 2 41 -15 59 -20 21 -21 30 -15 132 6 118 17 159 45 174 69 38 259 -59 259
-131 0 -11 9 -41 19 -67 11 -26 25 -89 32 -141 23 -161 58 -183 379 -238 17
-3 43 8 80 31 30 20 59 36 65 36 20 0 116 92 135 131 31 59 59 73 132 65 53
-5 65 -3 82 13 30 28 121 50 184 43 43 -4 57 -1 75 15 12 10 41 32 64 47 40
27 47 28 110 21 38 -3 78 -13 91 -21 73 -47 -50 -271 -167 -304 -65 -18 -214
-12 -275 11 -31 11 -60 18 -66 14 -14 -9 15 -61 46 -81 53 -36 285 -6 371 47
44 27 168 180 172 212 1 4 1 13 1 21 0 21 80 106 100 106 9 0 36 -6 58 -14 59
-21 109 -6 128 39 10 24 29 42 66 62 29 15 54 35 56 44 4 21 -74 44 -117 34
-38 -8 -68 10 -50 31 18 22 5 39 -32 41 -78 4 -187 25 -230 43 -117 49 -432
68 -1224 74 l-430 4 -95 36 c-105 40 -129 59 -104 87 17 19 8 17 329 64 482
71 887 71 1220 -2 118 -25 267 -74 292 -95 8 -6 16 -8 20 -4 3 3 2 6 -4 6 -6
0 -17 15 -24 33 -17 40 -17 246 -1 297 19 57 44 219 47 295 5 170 -36 279
-141 372 -75 67 -120 96 -184 120 -25 9 -57 25 -72 35 -38 26 -248 95 -343
113 -44 8 -125 19 -181 25 -55 5 -118 11 -140 14 -21 2 -52 1 -69 -4z m645
-343 c28 -14 39 -55 18 -68 -22 -14 -42 -10 -112 21 -57 26 -66 33 -56 45 16
19 115 20 150 2z m-326 -43 c3 -9 6 -37 6 -63 0 -52 21 -91 49 -91 26 0 32 22
18 60 -15 38 1 52 46 39 39 -11 39 -12 27 -44 -8 -22 -7 -34 8 -59 16 -28 17
-34 3 -57 -22 -40 3 -74 61 -82 76 -10 92 47 22 80 -42 20 -43 29 -4 38 44 10
80 -2 123 -40 38 -33 38 -34 43 -124 4 -81 3 -92 -15 -110 -33 -33 -66 -36
-127 -12 -66 25 -87 26 -104 6 -11 -13 -9 -21 8 -45 30 -40 28 -68 -4 -76 -41
-10 -78 23 -82 75 -3 36 -7 43 -36 55 -67 28 -109 114 -71 146 23 19 38 7 49
-41 9 -37 15 -44 36 -44 23 0 25 4 24 40 -2 58 -10 121 -18 134 -4 6 -18 11
-30 11 -13 0 -35 9 -49 20 -58 46 -64 200 -8 200 11 0 22 -7 25 -16z m397 -74
c25 -14 51 -67 44 -90 -7 -22 -37 -34 -64 -25 -17 5 -71 82 -71 100 0 7 39 23
58 24 7 1 22 -4 33 -9z m-876 -995 c83 -1 175 -6 205 -10 30 -4 89 -9 130 -9
41 -1 136 -8 210 -15 77 -7 222 -11 339 -9 l203 3 16 -40 c8 -22 28 -59 44
-82 50 -74 40 -83 -91 -83 -147 0 -232 19 -148 33 59 9 107 34 107 56 0 29
-13 33 -79 21 -109 -20 -157 -38 -169 -65 -16 -35 -130 -85 -193 -85 -61 0
-148 32 -180 66 -53 57 -112 80 -256 100 -41 6 -42 5 -60 -32 -10 -21 -26 -40
-35 -42 -25 -5 -90 29 -96 50 -5 22 -28 24 -36 2 -5 -14 -16 -16 -57 -11 -62
8 -102 30 -143 80 -40 50 -29 71 39 74 26 1 50 4 53 8 4 3 16 3 27 -1 11 -3
88 -8 170 -9z m-646 -121 c39 -49 20 -110 -31 -102 -27 4 -54 65 -44 103 9 34
48 34 75 -1z m1062 -233 c16 -16 29 -38 29 -49 0 -24 -77 -140 -105 -158 -11
-7 -56 -25 -99 -39 -70 -24 -88 -26 -160 -20 -121 11 -186 33 -214 75 -22 31
-23 42 -18 104 8 84 24 106 77 106 35 0 79 -28 79 -51 0 -3 13 -12 29 -19 23
-9 34 -9 53 1 12 8 58 14 102 15 70 2 82 5 120 33 52 38 70 38 107 2z"/>
<path d="M2014 2535 c-13 -32 17 -70 57 -73 49 -4 89 13 89 37 0 26 -23 38
-88 47 -44 6 -53 4 -58 -11z"/>
<path d="M430 1545 c-7 -18 -7 -46 1 -88 6 -34 12 -73 13 -87 2 -16 14 -32 35
-44 30 -17 34 -17 49 -3 14 15 14 22 -5 89 -12 40 -25 91 -30 113 -6 31 -13
41 -30 43 -17 3 -26 -3 -33 -23z"/>
<path d="M563 1252 c-6 -4 -12 -18 -14 -32 -3 -20 9 -38 51 -81 49 -48 62 -56
118 -67 34 -7 67 -10 73 -7 12 8 3 39 -28 88 -19 30 -29 37 -56 37 -29 0 -56
13 -112 54 -11 9 -25 12 -32 8z"/>
<path d="M1685 1030 c-20 -32 73 -79 167 -85 42 -3 89 -9 104 -14 37 -10 54
-4 54 20 0 25 -56 59 -96 59 -17 0 -51 7 -74 15 -48 17 -146 20 -155 5z"/>
<path d="M807 1004 c-16 -16 -5 -83 23 -142 17 -35 30 -72 30 -81 0 -10 11
-33 25 -52 13 -19 40 -56 58 -84 19 -27 49 -63 67 -80 18 -16 49 -55 70 -85
48 -70 120 -138 190 -183 62 -39 287 -149 339 -166 48 -15 161 -14 209 3 101
36 213 99 245 138 17 22 49 60 70 84 20 25 37 52 37 61 0 23 48 151 73 196 18
33 19 40 7 48 -8 5 -31 8 -50 7 -29 -3 -38 -10 -57 -43 -14 -25 -23 -57 -23
-86 0 -37 -7 -55 -36 -93 -20 -26 -40 -62 -45 -80 -18 -66 -34 -74 -141 -67
-9 1 -21 15 -27 31 -5 17 -13 30 -16 30 -20 0 -44 -24 -50 -50 -6 -29 -56 -80
-78 -80 -7 0 -25 14 -40 30 -16 17 -32 30 -37 30 -4 0 -13 14 -20 30 -17 42
-78 93 -99 84 -42 -17 -63 -16 -87 7 -37 34 -97 147 -91 170 4 13 -5 32 -24
54 -43 48 -66 53 -98 21 -47 -48 -104 -87 -119 -81 -7 3 -18 5 -23 5 -5 0 -25
25 -44 55 -19 30 -53 69 -75 86 -22 18 -40 40 -40 48 0 9 -8 28 -17 41 -18 25
-26 43 -58 130 -18 49 -37 74 -48 64z"/>
<path d="M1418 933 c-25 -6 -33 -41 -14 -62 26 -29 95 -46 191 -46 150 -1 304
-17 316 -32 16 -19 40 -16 100 12 30 13 73 27 96 31 43 6 65 30 37 41 -8 3
-32 3 -52 -1 -147 -26 -156 -27 -351 -11 -227 19 -267 27 -274 55 -5 20 -15
22 -49 13z"/>
<path d="M1700 771 c0 -12 26 -21 58 -20 l27 1 -30 13 c-35 16 -55 19 -55 6z"/>
<path d="M1685 660 c3 -5 8 -10 11 -10 2 0 4 5 4 10 0 6 -5 10 -11 10 -5 0 -7
-4 -4 -10z"/>
<path d="M1783 599 c-41 -12 -51 -28 -28 -46 38 -27 115 -10 115 26 0 30 -29
37 -87 20z"/>
</g>
</svg>
